<svg xmlns="http://www.w3.org/2000/svg" xmlns:xlink="http://www.w3.org/1999/xlink" width="800" zoomAndPan="magnify" viewBox="0 0 600 599.999999" height="800" preserveAspectRatio="xMidYMid meet" version="1.2"><defs><clipPath id="31e2496cad"><path d="M 76.375 76.375 L 523.375 76.375 L 523.375 523.375 L 76.375 523.375 Z M 76.375 76.375 "/></clipPath></defs><g id="af9fcfbae7"><g clip-rule="nonzero" clip-path="url(#31e2496cad)"><path style=" stroke:none;fill-rule:nonzero;fill:#000000;fill-opacity:1;" d="M 299.875 76.375 C 296.214844 76.375 292.5625 76.464844 288.90625 76.644531 C 285.253906 76.824219 281.605469 77.089844 277.96875 77.449219 C 274.328125 77.808594 270.699219 78.257812 267.078125 78.792969 C 263.460938 79.328125 259.859375 79.953125 256.269531 80.667969 C 252.683594 81.382812 249.117188 82.183594 245.566406 83.070312 C 242.019531 83.960938 238.496094 84.9375 234.996094 85.996094 C 231.496094 87.058594 228.023438 88.207031 224.578125 89.4375 C 221.136719 90.671875 217.722656 91.988281 214.34375 93.386719 C 210.964844 94.785156 207.621094 96.269531 204.316406 97.832031 C 201.007812 99.394531 197.742188 101.039062 194.515625 102.765625 C 191.292969 104.488281 188.109375 106.292969 184.972656 108.171875 C 181.835938 110.050781 178.746094 112.007812 175.703125 114.039062 C 172.664062 116.074219 169.671875 118.179688 166.734375 120.355469 C 163.796875 122.535156 160.914062 124.785156 158.085938 127.105469 C 155.257812 129.425781 152.492188 131.816406 149.78125 134.269531 C 147.070312 136.726562 144.421875 139.25 141.835938 141.835938 C 139.25 144.421875 136.726562 147.070312 134.269531 149.78125 C 131.816406 152.492188 129.425781 155.257812 127.105469 158.085938 C 124.785156 160.914062 122.535156 163.796875 120.355469 166.734375 C 118.179688 169.671875 116.074219 172.664062 114.039062 175.703125 C 112.007812 178.746094 110.050781 181.835938 108.171875 184.972656 C 106.292969 188.109375 104.488281 191.292969 102.765625 194.515625 C 101.039062 197.742188 99.394531 201.007812 97.832031 204.316406 C 96.269531 207.621094 94.785156 210.964844 93.386719 214.34375 C 91.988281 217.722656 90.671875 221.136719 89.4375 224.578125 C 88.207031 228.023438 87.058594 231.496094 85.996094 234.996094 C 84.9375 238.496094 83.960938 242.019531 83.070312 245.566406 C 82.183594 249.117188 81.382812 252.683594 80.667969 256.269531 C 79.953125 259.859375 79.328125 263.460938 78.792969 267.078125 C 78.257812 270.699219 77.808594 274.328125 77.449219 277.96875 C 77.089844 281.605469 76.824219 285.253906 76.644531 288.90625 C 76.464844 292.5625 76.375 296.214844 76.375 299.875 C 76.375 303.53125 76.464844 307.1875 76.644531 310.839844 C 76.824219 314.492188 77.089844 318.140625 77.449219 321.78125 C 77.808594 325.421875 78.257812 329.050781 78.792969 332.667969 C 79.328125 336.285156 79.953125 339.890625 80.667969 343.476562 C 81.382812 347.0625 82.183594 350.632812 83.070312 354.179688 C 83.960938 357.726562 84.9375 361.253906 85.996094 364.753906 C 87.058594 368.253906 88.207031 371.726562 89.4375 375.167969 C 90.671875 378.613281 91.988281 382.023438 93.386719 385.402344 C 94.785156 388.78125 96.269531 392.125 97.832031 395.433594 C 99.394531 398.738281 101.039062 402.003906 102.765625 405.230469 C 104.488281 408.457031 106.292969 411.636719 108.171875 414.777344 C 110.050781 417.914062 112.007812 421.003906 114.039062 424.042969 C 116.074219 427.085938 118.179688 430.074219 120.355469 433.011719 C 122.535156 435.949219 124.785156 438.832031 127.105469 441.660156 C 129.425781 444.488281 131.816406 447.257812 134.269531 449.96875 C 136.726562 452.675781 139.25 455.324219 141.835938 457.914062 C 144.421875 460.5 147.070312 463.019531 149.78125 465.476562 C 152.492188 467.933594 155.257812 470.320312 158.085938 472.640625 C 160.914062 474.960938 163.796875 477.210938 166.734375 479.390625 C 169.671875 481.570312 172.664062 483.675781 175.703125 485.707031 C 178.746094 487.738281 181.835938 489.695312 184.972656 491.578125 C 188.109375 493.457031 191.292969 495.257812 194.515625 496.984375 C 197.742188 498.707031 201.007812 500.351562 204.316406 501.914062 C 207.621094 503.480469 210.964844 504.960938 214.34375 506.359375 C 217.722656 507.761719 221.136719 509.078125 224.578125 510.308594 C 228.023438 511.542969 231.496094 512.6875 234.996094 513.75 C 238.496094 514.8125 242.019531 515.789062 245.566406 516.675781 C 249.117188 517.566406 252.683594 518.367188 256.269531 519.078125 C 259.859375 519.792969 263.460938 520.417969 267.078125 520.953125 C 270.699219 521.492188 274.328125 521.9375 277.96875 522.296875 C 281.605469 522.65625 285.253906 522.925781 288.90625 523.105469 C 292.5625 523.285156 296.214844 523.375 299.875 523.375 C 303.53125 523.375 307.1875 523.285156 310.839844 523.105469 C 314.492188 522.925781 318.140625 522.65625 321.78125 522.296875 C 325.421875 521.9375 329.050781 521.492188 332.667969 520.953125 C 336.285156 520.417969 339.890625 519.792969 343.476562 519.078125 C 347.0625 518.367188 350.632812 517.566406 354.179688 516.675781 C 357.726562 515.789062 361.253906 514.8125 364.753906 513.75 C 368.253906 512.6875 371.726562 511.542969 375.167969 510.308594 C 378.613281 509.078125 382.023438 507.761719 385.402344 506.359375 C 388.78125 504.960938 392.125 503.480469 395.433594 501.914062 C 398.738281 500.351562 402.003906 498.707031 405.230469 496.984375 C 408.457031 495.257812 411.636719 493.457031 414.777344 491.578125 C 417.914062 489.695312 421.003906 487.738281 424.042969 485.707031 C 427.085938 483.675781 430.074219 481.570312 433.011719 479.390625 C 435.949219 477.210938 438.832031 474.960938 441.660156 472.640625 C 444.488281 470.320312 447.257812 467.933594 449.96875 465.476562 C 452.675781 463.019531 455.324219 460.5 457.914062 457.914062 C 460.5 455.324219 463.019531 452.675781 465.476562 449.96875 C 467.933594 447.257812 470.320312 444.488281 472.640625 441.660156 C 474.960938 438.832031 477.210938 435.949219 479.390625 433.011719 C 481.570312 430.074219 483.675781 427.085938 485.707031 424.042969 C 487.738281 421.003906 489.695312 417.914062 491.578125 414.777344 C 493.457031 411.636719 495.257812 408.457031 496.984375 405.230469 C 498.707031 402.003906 500.351562 398.738281 501.914062 395.433594 C 503.480469 392.125 504.960938 388.78125 506.359375 385.402344 C 507.761719 382.023438 509.078125 378.613281 510.308594 375.167969 C 511.542969 371.726562 512.6875 368.253906 513.75 364.753906 C 514.8125 361.253906 515.789062 357.726562 516.675781 354.179688 C 517.566406 350.632812 518.367188 347.0625 519.078125 343.476562 C 519.792969 339.890625 520.417969 336.285156 520.953125 332.667969 C 521.492188 329.050781 521.9375 325.421875 522.296875 321.78125 C 522.65625 318.140625 522.925781 314.492188 523.105469 310.839844 C 523.285156 307.1875 523.375 303.53125 523.375 299.875 C 523.375 296.214844 523.285156 292.5625 523.105469 288.90625 C 522.925781 285.253906 522.65625 281.605469 522.296875 277.96875 C 521.9375 274.328125 521.492188 270.699219 520.953125 267.078125 C 520.417969 263.460938 519.792969 259.859375 519.078125 256.269531 C 518.367188 252.683594 517.566406 249.117188 516.675781 245.566406 C 515.789062 242.019531 514.8125 238.496094 513.75 234.996094 C 512.6875 231.496094 511.542969 228.023438 510.308594 224.578125 C 509.078125 221.136719 507.761719 217.722656 506.359375 214.34375 C 504.960938 210.964844 503.480469 207.621094 501.914062 204.316406 C 500.351562 201.007812 498.707031 197.742188 496.984375 194.515625 C 495.257812 191.292969 493.457031 188.109375 491.578125 184.972656 C 489.695312 181.835938 487.738281 178.746094 485.707031 175.703125 C 483.675781 172.664062 481.570312 169.671875 479.390625 166.734375 C 477.210938 163.796875 474.960938 160.914062 472.640625 158.085938 C 470.320312 155.257812 467.933594 152.492188 465.476562 149.78125 C 463.019531 147.070312 460.5 144.421875 457.914062 141.835938 C 455.324219 139.25 452.675781 136.726562 449.96875 134.269531 C 447.257812 131.816406 444.488281 129.425781 441.660156 127.105469 C 438.832031 124.785156 435.949219 122.535156 433.011719 120.355469 C 430.074219 118.179688 427.085938 116.074219 424.042969 114.039062 C 421.003906 112.007812 417.914062 110.050781 414.777344 108.171875 C 411.636719 106.292969 408.457031 104.488281 405.230469 102.765625 C 402.003906 101.039062 398.738281 99.394531 395.433594 97.832031 C 392.125 96.269531 388.78125 94.785156 385.402344 93.386719 C 382.023438 91.988281 378.613281 90.671875 375.167969 89.4375 C 371.726562 88.207031 368.253906 87.058594 364.753906 85.996094 C 361.253906 84.9375 357.726562 83.960938 354.179688 83.070312 C 350.632812 82.183594 347.0625 81.382812 343.476562 80.667969 C 339.890625 79.953125 336.285156 79.328125 332.667969 78.792969 C 329.050781 78.257812 325.421875 77.808594 321.78125 77.449219 C 318.140625 77.089844 314.492188 76.824219 310.839844 76.644531 C 307.1875 76.464844 303.53125 76.375 299.875 76.375 Z M 299.875 478.675781 C 296.949219 478.675781 294.023438 478.601562 291.101562 478.457031 C 288.179688 478.316406 285.261719 478.101562 282.347656 477.8125 C 279.4375 477.527344 276.53125 477.167969 273.636719 476.738281 C 270.742188 476.308594 267.863281 475.808594 264.992188 475.238281 C 262.121094 474.667969 259.269531 474.027344 256.429688 473.316406 C 253.589844 472.605469 250.769531 471.824219 247.972656 470.976562 C 245.171875 470.125 242.394531 469.207031 239.636719 468.222656 C 236.882812 467.234375 234.152344 466.183594 231.449219 465.0625 C 228.746094 463.945312 226.074219 462.757812 223.425781 461.507812 C 220.78125 460.257812 218.167969 458.941406 215.589844 457.5625 C 213.007812 456.183594 210.460938 454.738281 207.953125 453.234375 C 205.441406 451.730469 202.972656 450.167969 200.539062 448.539062 C 198.105469 446.914062 195.714844 445.230469 193.363281 443.488281 C 191.011719 441.746094 188.707031 439.945312 186.445312 438.089844 C 184.183594 436.230469 181.96875 434.320312 179.800781 432.355469 C 177.632812 430.390625 175.511719 428.375 173.441406 426.304688 C 171.375 424.234375 169.355469 422.117188 167.390625 419.949219 C 165.425781 417.78125 163.515625 415.566406 161.660156 413.304688 C 159.804688 411.042969 158.003906 408.734375 156.261719 406.386719 C 154.515625 404.035156 152.832031 401.644531 151.207031 399.210938 C 149.582031 396.777344 148.015625 394.304688 146.511719 391.796875 C 145.007812 389.285156 143.566406 386.742188 142.1875 384.160156 C 140.808594 381.578125 139.492188 378.964844 138.242188 376.320312 C 136.988281 373.675781 135.804688 371 134.683594 368.296875 C 133.566406 365.59375 132.511719 362.863281 131.527344 360.109375 C 130.539062 357.355469 129.621094 354.578125 128.773438 351.777344 C 127.921875 348.976562 127.144531 346.15625 126.433594 343.320312 C 125.722656 340.480469 125.082031 337.625 124.507812 334.757812 C 123.9375 331.886719 123.4375 329.003906 123.007812 326.109375 C 122.578125 323.214844 122.222656 320.3125 121.933594 317.398438 C 121.648438 314.488281 121.433594 311.570312 121.289062 308.648438 C 121.144531 305.726562 121.074219 302.800781 121.074219 299.875 C 121.074219 296.949219 121.144531 294.023438 121.289062 291.101562 C 121.433594 288.179688 121.648438 285.261719 121.933594 282.347656 C 122.222656 279.4375 122.578125 276.53125 123.007812 273.636719 C 123.4375 270.742188 123.9375 267.863281 124.507812 264.992188 C 125.082031 262.121094 125.722656 259.269531 126.433594 256.429688 C 127.144531 253.589844 127.921875 250.769531 128.773438 247.972656 C 129.621094 245.171875 130.539062 242.394531 131.527344 239.636719 C 132.511719 236.882812 133.566406 234.152344 134.683594 231.449219 C 135.804688 228.746094 136.988281 226.074219 138.242188 223.425781 C 139.492188 220.78125 140.808594 218.167969 142.1875 215.589844 C 143.566406 213.007812 145.007812 210.460938 146.511719 207.953125 C 148.015625 205.441406 149.582031 202.972656 151.207031 200.539062 C 152.832031 198.105469 154.515625 195.714844 156.261719 193.363281 C 158.003906 191.011719 159.804688 188.707031 161.660156 186.445312 C 163.515625 184.183594 165.425781 181.96875 167.390625 179.800781 C 169.355469 177.632812 171.375 175.511719 173.441406 173.445312 C 175.511719 171.375 177.632812 169.355469 179.800781 167.390625 C 181.96875 165.425781 184.183594 163.515625 186.445312 161.660156 C 188.707031 159.804688 191.011719 158.003906 193.363281 156.261719 C 195.714844 154.515625 198.105469 152.832031 200.539062 151.207031 C 202.972656 149.582031 205.441406 148.015625 207.953125 146.511719 C 210.460938 145.007812 213.007812 143.566406 215.589844 142.1875 C 218.167969 140.808594 220.78125 139.492188 223.425781 138.242188 C 226.074219 136.988281 228.746094 135.804688 231.449219 134.683594 C 234.152344 133.566406 236.882812 132.511719 239.636719 131.527344 C 242.394531 130.539062 245.171875 129.621094 247.972656 128.773438 C 250.769531 127.921875 253.589844 127.144531 256.429688 126.433594 C 259.269531 125.722656 262.121094 125.082031 264.992188 124.507812 C 267.863281 123.9375 270.742188 123.4375 273.636719 123.007812 C 276.53125 122.578125 279.4375 122.222656 282.347656 121.933594 C 285.261719 121.648438 288.179688 121.433594 291.101562 121.289062 C 294.023438 121.144531 296.949219 121.074219 299.875 121.074219 C 302.800781 121.074219 305.726562 121.144531 308.648438 121.289062 C 311.570312 121.433594 314.488281 121.648438 317.398438 121.933594 C 320.3125 122.222656 323.214844 122.578125 326.109375 123.007812 C 329.003906 123.4375 331.886719 123.9375 334.757812 124.507812 C 337.625 125.082031 340.480469 125.722656 343.320312 126.433594 C 346.15625 127.144531 348.976562 127.921875 351.777344 128.773438 C 354.578125 129.621094 357.355469 130.539062 360.109375 131.527344 C 362.863281 132.511719 365.59375 133.566406 368.296875 134.683594 C 371 135.804688 373.675781 136.988281 376.320312 138.242188 C 378.964844 139.492188 381.578125 140.808594 384.160156 142.1875 C 386.742188 143.566406 389.285156 145.007812 391.796875 146.511719 C 394.304688 148.015625 396.777344 149.582031 399.210938 151.207031 C 401.644531 152.832031 404.035156 154.515625 406.386719 156.261719 C 408.734375 158.003906 411.042969 159.804688 413.304688 161.660156 C 415.566406 163.515625 417.78125 165.425781 419.949219 167.390625 C 422.117188 169.355469 424.234375 171.375 426.304688 173.445312 C 428.375 175.511719 430.390625 177.632812 432.355469 179.800781 C 434.320312 181.96875 436.230469 184.183594 438.089844 186.445312 C 439.945312 188.707031 441.746094 191.011719 443.488281 193.363281 C 445.230469 195.714844 446.914062 198.105469 448.539062 200.539062 C 450.167969 202.972656 451.730469 205.441406 453.234375 207.953125 C 454.738281 210.460938 456.183594 213.007812 457.5625 215.589844 C 458.941406 218.167969 460.257812 220.78125 461.507812 223.425781 C 462.757812 226.074219 463.945312 228.746094 465.0625 231.449219 C 466.183594 234.152344 467.234375 236.882812 468.222656 239.636719 C 469.207031 242.394531 470.125 245.171875 470.976562 247.972656 C 471.824219 250.769531 472.605469 253.589844 473.316406 256.429688 C 474.027344 259.269531 474.667969 262.121094 475.238281 264.992188 C 475.808594 267.863281 476.308594 270.742188 476.738281 273.636719 C 477.167969 276.53125 477.527344 279.4375 477.8125 282.347656 C 478.101562 285.261719 478.316406 288.179688 478.457031 291.101562 C 478.601562 294.023438 478.675781 296.949219 478.675781 299.875 C 478.675781 302.800781 478.601562 305.726562 478.457031 308.648438 C 478.316406 311.570312 478.101562 314.488281 477.8125 317.398438 C 477.527344 320.3125 477.167969 323.214844 476.738281 326.109375 C 476.308594 329.003906 475.808594 331.886719 475.238281 334.757812 C 474.667969 337.625 474.027344 340.480469 473.316406 343.320312 C 472.605469 346.15625 471.824219 348.976562 470.976562 351.777344 C 470.125 354.578125 469.207031 357.355469 468.222656 360.109375 C 467.234375 362.863281 466.183594 365.59375 465.0625 368.296875 C 463.945312 371 462.757812 373.675781 461.507812 376.320312 C 460.257812 378.964844 458.941406 381.578125 457.5625 384.160156 C 456.183594 386.742188 454.738281 389.285156 453.234375 391.796875 C 451.730469 394.304688 450.167969 396.777344 448.539062 399.210938 C 446.914062 401.644531 445.230469 404.035156 443.488281 406.386719 C 441.746094 408.734375 439.945312 411.042969 438.089844 413.304688 C 436.230469 415.566406 434.320312 417.78125 432.355469 419.949219 C 430.390625 422.117188 428.375 424.234375 426.304688 426.304688 C 424.234375 428.375 422.117188 430.390625 419.949219 432.355469 C 417.78125 434.320312 415.566406 436.230469 413.304688 438.089844 C 411.042969 439.945312 408.734375 441.746094 406.386719 443.488281 C 404.035156 445.230469 401.644531 446.914062 399.210938 448.539062 C 396.777344 450.167969 394.304688 451.730469 391.796875 453.234375 C 389.285156 454.738281 386.742188 456.183594 384.160156 457.5625 C 381.578125 458.941406 378.964844 460.257812 376.320312 461.507812 C 373.675781 462.757812 371 463.945312 368.296875 465.0625 C 365.59375 466.183594 362.863281 467.234375 360.109375 468.222656 C 357.355469 469.207031 354.578125 470.125 351.777344 470.976562 C 348.976562 471.824219 346.15625 472.605469 343.320312 473.316406 C 340.480469 474.027344 337.625 474.667969 334.757812 475.238281 C 331.886719 475.808594 329.003906 476.308594 326.109375 476.738281 C 323.214844 477.167969 320.3125 477.527344 317.398438 477.8125 C 314.488281 478.101562 311.570312 478.316406 308.648438 478.457031 C 305.726562 478.601562 302.800781 478.675781 299.875 478.675781 Z M 299.875 478.675781 "/></g><path style=" stroke:none;fill-rule:nonzero;fill:#000000;fill-opacity:1;" d="M 411.625 299.875 L 322.222656 299.875 L 322.222656 210.472656 C 322.222656 209.742188 322.1875 209.011719 322.117188 208.285156 C 322.042969 207.554688 321.9375 206.832031 321.792969 206.113281 C 321.652344 205.394531 321.472656 204.6875 321.261719 203.984375 C 321.050781 203.285156 320.804688 202.597656 320.523438 201.921875 C 320.242188 201.246094 319.929688 200.582031 319.585938 199.9375 C 319.238281 199.292969 318.863281 198.664062 318.457031 198.058594 C 318.050781 197.449219 317.613281 196.859375 317.152344 196.296875 C 316.6875 195.730469 316.195312 195.1875 315.679688 194.671875 C 315.160156 194.152344 314.617188 193.660156 314.050781 193.199219 C 313.488281 192.734375 312.898438 192.296875 312.289062 191.890625 C 311.683594 191.484375 311.054688 191.109375 310.410156 190.761719 C 309.765625 190.417969 309.101562 190.105469 308.425781 189.824219 C 307.75 189.546875 307.0625 189.300781 306.363281 189.085938 C 305.660156 188.875 304.953125 188.695312 304.234375 188.554688 C 303.515625 188.410156 302.792969 188.304688 302.066406 188.230469 C 301.335938 188.160156 300.605469 188.125 299.875 188.125 C 299.140625 188.125 298.410156 188.160156 297.683594 188.230469 C 296.953125 188.304688 296.230469 188.410156 295.515625 188.554688 C 294.796875 188.695312 294.085938 188.875 293.386719 189.085938 C 292.6875 189.300781 291.996094 189.546875 291.320312 189.824219 C 290.644531 190.105469 289.984375 190.417969 289.339844 190.761719 C 288.691406 191.109375 288.066406 191.484375 287.457031 191.890625 C 286.847656 192.296875 286.261719 192.734375 285.695312 193.199219 C 285.128906 193.660156 284.585938 194.152344 284.070312 194.671875 C 283.550781 195.1875 283.0625 195.730469 282.597656 196.296875 C 282.132812 196.859375 281.699219 197.449219 281.289062 198.058594 C 280.882812 198.664062 280.507812 199.292969 280.164062 199.9375 C 279.816406 200.582031 279.503906 201.246094 279.226562 201.921875 C 278.945312 202.597656 278.699219 203.285156 278.488281 203.984375 C 278.273438 204.6875 278.097656 205.394531 277.953125 206.113281 C 277.8125 206.832031 277.703125 207.554688 277.632812 208.285156 C 277.558594 209.011719 277.523438 209.742188 277.523438 210.472656 L 277.523438 322.222656 C 277.523438 322.957031 277.558594 323.6875 277.632812 324.414062 C 277.703125 325.144531 277.8125 325.867188 277.953125 326.585938 C 278.097656 327.300781 278.273438 328.011719 278.488281 328.710938 C 278.699219 329.414062 278.945312 330.101562 279.226562 330.777344 C 279.503906 331.453125 279.816406 332.113281 280.164062 332.757812 C 280.507812 333.40625 280.882812 334.03125 281.289062 334.640625 C 281.699219 335.25 282.132812 335.835938 282.597656 336.402344 C 283.0625 336.96875 283.550781 337.511719 284.070312 338.027344 C 284.585938 338.546875 285.128906 339.035156 285.695312 339.5 C 286.261719 339.964844 286.847656 340.402344 287.457031 340.808594 C 288.066406 341.214844 288.691406 341.589844 289.339844 341.933594 C 289.984375 342.28125 290.644531 342.59375 291.320312 342.871094 C 291.996094 343.152344 292.6875 343.398438 293.386719 343.613281 C 294.085938 343.824219 294.796875 344 295.515625 344.144531 C 296.230469 344.289062 296.953125 344.394531 297.683594 344.464844 C 298.410156 344.539062 299.140625 344.574219 299.875 344.574219 L 411.625 344.574219 C 412.355469 344.574219 413.085938 344.539062 413.816406 344.464844 C 414.542969 344.394531 415.265625 344.289062 415.984375 344.144531 C 416.703125 344 417.410156 343.824219 418.113281 343.613281 C 418.8125 343.398438 419.5 343.152344 420.175781 342.871094 C 420.851562 342.59375 421.515625 342.28125 422.160156 341.933594 C 422.804688 341.589844 423.433594 341.214844 424.039062 340.808594 C 424.648438 340.402344 425.238281 339.964844 425.800781 339.5 C 426.367188 339.035156 426.910156 338.546875 427.429688 338.027344 C 427.945312 337.511719 428.4375 336.96875 428.902344 336.402344 C 429.363281 335.835938 429.800781 335.25 430.207031 334.640625 C 430.613281 334.03125 430.988281 333.40625 431.335938 332.757812 C 431.679688 332.113281 431.992188 331.453125 432.273438 330.777344 C 432.554688 330.101562 432.800781 329.414062 433.011719 328.710938 C 433.222656 328.011719 433.402344 327.300781 433.542969 326.585938 C 433.6875 325.867188 433.792969 325.144531 433.867188 324.414062 C 433.9375 323.6875 433.972656 322.957031 433.972656 322.222656 C 433.972656 321.492188 433.9375 320.761719 433.867188 320.035156 C 433.792969 319.304688 433.6875 318.582031 433.542969 317.863281 C 433.402344 317.144531 433.222656 316.4375 433.011719 315.734375 C 432.800781 315.035156 432.554688 314.347656 432.273438 313.671875 C 431.992188 312.996094 431.679688 312.332031 431.335938 311.6875 C 430.988281 311.042969 430.613281 310.414062 430.207031 309.808594 C 429.800781 309.199219 429.363281 308.609375 428.902344 308.046875 C 428.4375 307.480469 427.945312 306.9375 427.429688 306.421875 C 426.910156 305.902344 426.367188 305.410156 425.800781 304.949219 C 425.238281 304.484375 424.648438 304.046875 424.039062 303.640625 C 423.433594 303.234375 422.804688 302.859375 422.160156 302.511719 C 421.515625 302.167969 420.851562 301.855469 420.175781 301.574219 C 419.5 301.296875 418.8125 301.050781 418.113281 300.835938 C 417.410156 300.625 416.703125 300.445312 415.984375 300.304688 C 415.265625 300.160156 414.542969 300.054688 413.816406 299.980469 C 413.085938 299.910156 412.355469 299.875 411.625 299.875 Z M 411.625 299.875 "/></g></svg>