<svg xmlns="http://www.w3.org/2000/svg" xmlns:xlink="http://www.w3.org/1999/xlink" width="800" zoomAndPan="magnify" viewBox="0 0 600 599.999999" height="800" preserveAspectRatio="xMidYMid meet" version="1.2"><defs><clipPath id="24dc6e83ce"><path d="M 73.511719 73.511719 L 526.511719 73.511719 L 526.511719 526.511719 L 73.511719 526.511719 Z M 73.511719 73.511719 "/></clipPath></defs><g id="630106f2ef"><g clip-rule="nonzero" clip-path="url(#24dc6e83ce)"><path style=" stroke:none;fill-rule:nonzero;fill:#000000;fill-opacity:1;" d="M 477.214844 374.792969 C 462.621094 409.300781 438.195312 438.71875 407.476562 459.480469 C 376.738281 480.230469 339.808594 492.320312 299.890625 492.328125 C 273.269531 492.328125 248.003906 486.941406 224.988281 477.214844 C 190.472656 462.621094 161.054688 438.195312 140.300781 407.476562 C 119.550781 376.738281 107.449219 339.808594 107.445312 299.890625 C 107.449219 273.269531 112.828125 248.003906 122.5625 224.988281 C 137.15625 190.472656 161.578125 161.054688 192.304688 140.300781 C 223.042969 119.550781 259.972656 107.449219 299.890625 107.445312 C 326.503906 107.449219 351.777344 112.828125 374.792969 122.5625 C 409.300781 137.15625 438.71875 161.578125 459.480469 192.304688 C 480.230469 223.042969 492.320312 259.972656 492.328125 299.890625 C 492.328125 326.503906 486.941406 351.777344 477.214844 374.792969 Z M 508.53125 211.742188 C 491.328125 171.082031 462.636719 136.539062 426.503906 112.128906 C 390.386719 87.714844 346.730469 73.4375 299.890625 73.445312 C 268.667969 73.445312 238.839844 79.785156 211.742188 91.25 C 171.082031 108.445312 136.539062 137.136719 112.128906 173.269531 C 87.714844 209.390625 73.4375 253.050781 73.445312 299.890625 C 73.445312 331.109375 79.785156 360.933594 91.25 388.039062 C 108.445312 428.699219 137.136719 463.234375 173.269531 487.648438 C 209.390625 512.0625 253.050781 526.339844 299.890625 526.332031 C 331.109375 526.332031 360.933594 519.996094 388.039062 508.53125 C 428.699219 491.328125 463.234375 462.636719 487.648438 426.503906 C 512.0625 390.386719 526.339844 346.730469 526.332031 299.890625 C 526.332031 268.667969 519.996094 238.839844 508.53125 211.742188 Z M 423.585938 353.175781 C 413.203125 377.734375 395.824219 398.660156 373.964844 413.425781 C 352.101562 428.191406 325.820312 436.792969 297.425781 436.800781 C 278.488281 436.800781 260.507812 432.972656 244.132812 426.050781 C 219.582031 415.667969 198.648438 398.289062 183.890625 376.429688 C 169.121094 354.566406 160.511719 328.285156 160.511719 299.890625 C 160.511719 280.957031 164.339844 262.972656 171.261719 246.597656 C 181.644531 222.046875 199.023438 201.113281 220.886719 186.355469 C 242.746094 171.585938 269.03125 162.976562 297.425781 162.976562 C 316.359375 162.976562 334.339844 166.808594 350.714844 173.730469 C 375.269531 184.113281 396.199219 201.488281 410.960938 223.351562 C 425.726562 245.214844 434.335938 271.488281 434.335938 299.890625 C 434.335938 318.824219 430.507812 336.808594 423.585938 353.175781 Z M 445.867188 237.171875 C 433.621094 208.246094 413.210938 183.671875 387.503906 166.300781 C 361.804688 148.941406 330.75 138.78125 297.425781 138.789062 C 275.214844 138.78125 253.988281 143.292969 234.707031 151.449219 C 205.78125 163.683594 181.207031 184.097656 163.84375 209.804688 C 146.472656 235.5 136.3125 266.5625 136.320312 299.890625 C 136.3125 322.097656 140.828125 343.320312 148.984375 362.597656 C 161.21875 391.527344 181.632812 416.101562 207.34375 433.46875 C 233.035156 450.839844 264.097656 461 297.425781 460.992188 C 319.632812 460.992188 340.851562 456.484375 360.132812 448.332031 C 389.0625 436.089844 413.632812 415.675781 431.003906 389.96875 C 448.375 364.273438 458.535156 333.210938 458.527344 299.890625 C 458.527344 277.675781 454.019531 256.453125 445.867188 237.171875 Z M 372.707031 331.6875 C 366.515625 346.332031 356.140625 358.828125 343.09375 367.640625 C 330.035156 376.449219 314.382812 381.585938 297.425781 381.589844 C 286.109375 381.585938 275.394531 379.296875 265.625 375.175781 C 250.980469 368.980469 238.480469 358.605469 229.667969 345.5625 C 220.855469 332.503906 215.730469 316.847656 215.722656 299.890625 C 215.722656 288.578125 218.007812 277.855469 222.140625 268.09375 C 228.332031 253.449219 238.710938 240.945312 251.753906 232.132812 C 264.804688 223.324219 280.457031 218.195312 297.425781 218.1875 C 308.738281 218.1875 319.453125 220.472656 329.222656 224.605469 C 343.867188 230.800781 356.363281 241.167969 365.179688 254.21875 C 373.984375 267.269531 379.117188 282.925781 379.125 299.890625 C 379.117188 311.203125 376.832031 321.917969 372.707031 331.6875 Z M 356.636719 212.089844 C 339.75 200.675781 319.308594 193.996094 297.425781 193.996094 C 282.835938 193.996094 268.878906 196.960938 256.203125 202.324219 C 237.1875 210.371094 221.042969 223.785156 209.621094 240.679688 C 198.207031 257.566406 191.53125 278 191.53125 299.890625 C 191.53125 314.476562 194.496094 328.4375 199.859375 341.113281 C 207.90625 360.125 221.316406 376.269531 238.210938 387.683594 C 255.097656 399.105469 275.535156 405.78125 297.425781 405.78125 C 312.011719 405.78125 325.96875 402.820312 338.644531 397.453125 C 357.660156 389.40625 373.804688 375.996094 385.21875 359.101562 C 396.640625 342.214844 403.316406 321.773438 403.316406 299.890625 C 403.316406 285.304688 400.351562 271.34375 394.988281 258.667969 C 386.941406 239.648438 373.53125 223.503906 356.636719 212.089844 Z M 297.425781 259.726562 C 275.246094 259.726562 257.269531 277.710938 257.269531 299.890625 C 257.269531 322.070312 275.246094 340.046875 297.425781 340.046875 C 319.601562 340.046875 337.578125 322.070312 337.578125 299.890625 C 337.578125 277.710938 319.601562 259.726562 297.425781 259.726562 "/></g></g></svg>