<svg xmlns="http://www.w3.org/2000/svg" xmlns:xlink="http://www.w3.org/1999/xlink" width="800" zoomAndPan="magnify" viewBox="0 0 600 599.999999" height="800" preserveAspectRatio="xMidYMid meet" version="1.2"><defs><clipPath id="1e63608d5d"><path d="M 71 83 L 530 83 L 530 518.910156 L 71 518.910156 Z M 71 83 "/></clipPath></defs><g id="c66f0ab80e"><g clip-rule="nonzero" clip-path="url(#1e63608d5d)"><path style=" stroke:none;fill-rule:nonzero;fill:#000000;fill-opacity:1;" d="M 524.710938 89.449219 C 517.765625 81.632812 505.847656 80.910156 498.035156 87.859375 C 468.078125 114.398438 440.53125 141.710938 413.226562 170.132812 C 386.117188 198.550781 359.683594 227.648438 334.355469 257.761719 C 296.390625 302.441406 260.453125 349.054688 226.539062 397.40625 L 104.105469 265.722656 C 98.21875 259.351562 88.476562 257.664062 80.660156 262.199219 C 71.589844 267.460938 68.503906 279.089844 73.761719 288.160156 C 73.761719 288.160156 190.503906 489.570312 195.328125 497.871094 C 200.199219 506.171875 210.621094 518.910156 232.472656 518.910156 C 253.503906 518.910156 265.132812 506.507812 272.125 493.382812 C 279.167969 480.066406 343.859375 360.15625 386.070312 296.796875 C 407.054688 265 429.242188 233.972656 452.207031 203.472656 C 475.167969 173.121094 499.335938 142.914062 524.230469 115.023438 L 524.664062 114.542969 C 530.984375 107.496094 531.175781 96.6875 524.710938 89.449219 Z M 524.710938 89.449219 "/></g></g></svg>