<svg xmlns="http://www.w3.org/2000/svg" xmlns:xlink="http://www.w3.org/1999/xlink" width="800" zoomAndPan="magnify" viewBox="0 0 600 599.999999" height="800" preserveAspectRatio="xMidYMid meet" version="1.2"><defs><clipPath id="5d9b1e3434"><path d="M 167 88.125 L 431 88.125 L 431 511.875 L 167 511.875 Z M 167 88.125 "/></clipPath></defs><g id="e52502ed38"><g clip-rule="nonzero" clip-path="url(#5d9b1e3434)"><path style=" stroke:none;fill-rule:nonzero;fill:#000000;fill-opacity:1;" d="M 426.113281 88.125 L 274.871094 88.125 C 273.0625 88.125 271.425781 89.136719 270.597656 90.734375 L 173.726562 280.132812 C 172.957031 281.613281 173.023438 283.40625 173.898438 284.832031 C 174.785156 286.257812 176.320312 287.140625 178.015625 287.140625 L 278.824219 287.140625 L 168.28125 504.871094 C 167.195312 507.019531 167.859375 509.648438 169.847656 511.027344 C 170.675781 511.59375 171.636719 511.875 172.570312 511.875 C 173.898438 511.875 175.207031 511.324219 176.148438 510.273438 L 424.25 233.902344 C 425.519531 232.496094 425.835938 230.464844 425.054688 228.730469 C 424.285156 226.980469 422.554688 225.871094 420.660156 225.871094 L 319.691406 225.871094 L 429.777344 96.058594 C 430.980469 94.632812 431.261719 92.621094 430.472656 90.90625 C 429.683594 89.210938 427.980469 88.125 426.113281 88.125 Z M 426.113281 88.125 "/></g></g></svg>